<svg width="15" height="12" viewBox="0 0 15 12" fill="none" xmlns="http://www.w3.org/2000/svg">
<path d="M9.19166 10.8354C9.00833 10.652 8.92033 10.4305 8.92766 10.1708C8.935 9.91105 9.03064 9.68953 9.21458 9.50619L11.8042 6.91661L1.58333 6.91661C1.3236 6.91661 1.10574 6.82861 0.929743 6.65261C0.753743 6.47661 0.666049 6.25905 0.66666 5.99994C0.66666 5.74022 0.75466 5.52236 0.93066 5.34636C1.10666 5.17036 1.32422 5.08266 1.58333 5.08328L11.8042 5.08328L9.19166 2.47078C9.00833 2.28744 8.91666 2.06958 8.91666 1.81719C8.91666 1.5648 9.00833 1.34725 9.19166 1.16453C9.375 0.981193 9.59286 0.889526 9.84525 0.889526C10.0976 0.889526 10.3152 0.981193 10.4979 1.16453L14.6917 5.35828C14.7833 5.44994 14.8484 5.54925 14.8869 5.65619C14.9254 5.76314 14.9444 5.87772 14.9437 5.99994C14.9437 6.12217 14.9245 6.23675 14.886 6.34369C14.8475 6.45064 14.7827 6.54994 14.6917 6.64161L10.475 10.8583C10.3069 11.0263 10.097 11.1104 9.84525 11.1104C9.59347 11.1104 9.37561 11.0187 9.19166 10.8354Z" fill="#2A5679"/>
</svg>
