<svg width="17" height="17" viewBox="0 0 17 17" fill="none" xmlns="http://www.w3.org/2000/svg">
<path d="M14.8411 2.15901C14.3658 1.68373 13.7212 1.41672 13.049 1.41672C12.3769 1.41672 11.7322 1.68373 11.2569 2.15901L2.79092 10.625C2.50319 10.9128 2.3009 11.2747 2.20655 11.6705L1.43092 14.9303C1.40992 15.0186 1.41189 15.1108 1.43664 15.1981C1.46139 15.2854 1.5081 15.3649 1.57231 15.4291C1.63652 15.4932 1.71609 15.5398 1.80344 15.5645C1.89078 15.5891 1.98299 15.591 2.07126 15.5699L5.3303 14.7936C5.72639 14.6993 6.08856 14.497 6.37651 14.2092L14.8411 5.7446C15.3164 5.2693 15.5834 4.62467 15.5834 3.95251C15.5834 3.28035 15.3164 2.63572 14.8411 2.16043V2.15901ZM12.0078 2.90985C12.1445 2.77311 12.3068 2.66464 12.4855 2.59064C12.6641 2.51663 12.8556 2.47855 13.049 2.47855C13.2424 2.47855 13.4339 2.51663 13.6125 2.59064C13.7912 2.66464 13.9535 2.77311 14.0903 2.90985C14.227 3.04658 14.3355 3.20892 14.4095 3.38757C14.4835 3.56623 14.5216 3.75772 14.5216 3.9511C14.5216 4.14447 14.4835 4.33596 14.4095 4.51462C14.3355 4.69327 14.227 4.85561 14.0903 4.99235L13.4584 5.62347L11.3759 3.54168L12.0078 2.91055V2.90985ZM10.6251 4.29393L12.7076 6.37501L5.62426 13.4584C5.47551 13.6071 5.28851 13.7112 5.0838 13.7601L2.66413 14.3367L3.24001 11.917C3.28888 11.7116 3.39371 11.5246 3.54246 11.3758L10.6251 4.29251V4.29393Z" fill="white"/>
</svg>
