<svg width="21" height="24" viewBox="0 0 21 24" fill="none" xmlns="http://www.w3.org/2000/svg">
<path d="M2.74999 20.5417H6.62499V12.7917H14.375V20.5417H18.25V8.91667L10.5 3.10418L2.74999 8.91667V20.5417ZM2.74999 23.125C2.03957 23.125 1.4312 22.8718 0.924867 22.3655C0.418533 21.8592 0.165798 21.2512 0.166659 20.5417V8.91667C0.166659 8.50765 0.258367 8.12015 0.441783 7.75418C0.6252 7.3882 0.877936 7.08681 1.19999 6.85001L8.94999 1.03751C9.1868 0.865288 9.43436 0.736121 9.6927 0.65001C9.95103 0.563899 10.2201 0.520844 10.5 0.520844C10.7799 0.520844 11.0489 0.563899 11.3073 0.65001C11.5656 0.736121 11.8132 0.865288 12.05 1.03751L19.8 6.85001C20.1229 7.08681 20.3761 7.3882 20.5595 7.75418C20.7429 8.12015 20.8342 8.50765 20.8333 8.91667V20.5417C20.8333 21.2521 20.5802 21.8605 20.0738 22.3668C19.5675 22.8731 18.9595 23.1259 18.25 23.125H11.7917V15.375H9.20832V23.125H2.74999Z" fill="#2A5679"/>
</svg>
