<svg width="21" height="27" viewBox="0 0 21 27" fill="none" xmlns="http://www.w3.org/2000/svg">
<path d="M10.5 13.5C11.2104 13.5 11.8188 13.2468 12.3251 12.7405C12.8315 12.2342 13.0842 11.6262 13.0833 10.9167C13.0833 10.2063 12.8302 9.59788 12.3238 9.09155C11.8175 8.58522 11.2096 8.33248 10.5 8.33334C9.78958 8.33334 9.18121 8.58651 8.67488 9.09284C8.16854 9.59918 7.91581 10.2071 7.91667 10.9167C7.91667 11.6271 8.16984 12.2355 8.67617 12.7418C9.1825 13.2481 9.79045 13.5009 10.5 13.5ZM10.5 22.9938C13.1264 20.5827 15.0747 18.392 16.3448 16.4218C17.6149 14.4515 18.25 12.7026 18.25 11.175C18.25 8.82848 17.5017 6.90734 16.0051 5.41159C14.5085 3.91584 12.6734 3.16754 10.5 3.16668C8.3257 3.16668 6.49024 3.91498 4.99363 5.41159C3.49702 6.9082 2.74914 8.82934 2.75 11.175C2.75 12.7035 3.38507 14.4528 4.65521 16.4231C5.92535 18.3933 7.87361 20.5835 10.5 22.9938ZM10.5 26.4167C7.03403 23.4674 4.44553 20.7282 2.7345 18.1991C1.02347 15.67 0.167529 13.3286 0.166668 11.175C0.166668 7.94584 1.2056 5.37327 3.28346 3.4573C5.36132 1.54133 7.76683 0.583344 10.5 0.583344C13.234 0.583344 15.64 1.54133 17.7178 3.4573C19.7957 5.37327 20.8342 7.94584 20.8333 11.175C20.8333 13.3278 19.9774 15.6691 18.2655 18.1991C16.5536 20.729 13.9651 23.4682 10.5 26.4167Z" fill="#2A5679"/>
</svg>
