<svg width="251" height="245" viewBox="0 0 251 245" fill="none" xmlns="http://www.w3.org/2000/svg">
<g clip-path="url(#clip0_71_719)">
<path d="M159.21 55.3748H91.8461C90.311 55.3766 88.8393 55.9872 87.7538 57.0726C86.6683 58.1579 86.0577 59.6294 86.0558 61.1643V210.863L85.2838 211.098L68.7583 216.158C67.9751 216.397 67.1292 216.315 66.4062 215.931C65.6832 215.547 65.1422 214.891 64.9021 214.109L15.7463 53.5646C15.507 52.7815 15.5886 51.9355 15.9729 51.2124C16.3573 50.4894 17.013 49.9486 17.796 49.7087L43.2618 41.9121L117.088 19.3175L142.554 11.5209C142.941 11.4016 143.348 11.36 143.752 11.3982C144.156 11.4365 144.548 11.5541 144.906 11.7441C145.264 11.9341 145.581 12.1928 145.84 12.5056C146.098 12.8183 146.291 13.1788 146.41 13.5665L158.975 54.6028L159.21 55.3748Z" fill="#F2F2F2"/>
<path d="M173.91 54.603L158.766 5.14479C158.514 4.32072 158.103 3.55437 157.554 2.88953C157.006 2.22469 156.332 1.67439 155.571 1.27007C154.81 0.865746 153.977 0.615331 153.119 0.533139C152.261 0.450947 151.395 0.53859 150.571 0.791049L114.768 11.7487L40.9458 34.3473L5.14248 45.3088C3.47925 45.8195 2.08661 46.9691 1.27023 48.5054C0.453852 50.0416 0.280443 51.839 0.78807 53.503L52.5455 222.531C52.9579 223.874 53.79 225.05 54.9197 225.885C56.0493 226.721 57.4171 227.173 58.8223 227.174C59.4727 227.174 60.1194 227.077 60.7407 226.884L85.2839 219.373L86.0559 219.134V218.327L85.2839 218.563L60.513 226.147C59.0449 226.595 57.4593 226.442 56.1038 225.722C54.7484 225.002 53.7339 223.774 53.2829 222.307L1.52939 53.2752C1.30591 52.5484 1.22803 51.7847 1.30019 51.0277C1.37234 50.2708 1.59312 49.5355 1.94989 48.864C2.30665 48.1924 2.7924 47.5979 3.3793 47.1143C3.96621 46.6308 4.64274 46.2678 5.37016 46.046L41.1734 35.0845L114.996 12.4898L150.799 1.52826C151.351 1.3599 151.924 1.27405 152.501 1.27352C153.739 1.2763 154.944 1.67537 155.939 2.41229C156.933 3.14921 157.666 4.18525 158.029 5.36866L173.103 54.603L173.343 55.3749H174.146L173.91 54.603Z" fill="#3F3D56"/>
<path d="M47.8572 49.835C47.1132 49.8345 46.3889 49.5955 45.7907 49.1533C45.1924 48.711 44.7517 48.0887 44.5331 47.3776L39.561 31.1392C39.4274 30.703 39.381 30.2448 39.4245 29.7907C39.4681 29.3366 39.6006 28.8955 39.8147 28.4926C40.0287 28.0897 40.3201 27.733 40.672 27.4427C41.024 27.1524 41.4297 26.9343 41.866 26.8008L109.782 6.01102C110.663 5.7422 111.615 5.83388 112.428 6.26594C113.242 6.69799 113.85 7.43511 114.121 8.31553L119.093 24.5542C119.362 25.4351 119.27 26.3866 118.838 27.2C118.406 28.0133 117.669 28.6221 116.788 28.8927L48.8722 49.6825C48.5433 49.7834 48.2012 49.8348 47.8572 49.835Z" fill="#2A5679"/>
<path d="M73.9029 17.8511C78.1667 17.8511 81.6233 14.3951 81.6233 10.1317C81.6233 5.86844 78.1667 2.41235 73.9029 2.41235C69.639 2.41235 66.1825 5.86844 66.1825 10.1317C66.1825 14.3951 69.639 17.8511 73.9029 17.8511Z" fill="#2A5679"/>
<path d="M73.9029 15.0199C76.6029 15.0199 78.7917 12.8314 78.7917 10.1318C78.7917 7.4321 76.6029 5.24359 73.9029 5.24359C71.2029 5.24359 69.0141 7.4321 69.0141 10.1318C69.0141 12.8314 71.2029 15.0199 73.9029 15.0199Z" fill="white"/>
<path d="M233.129 225.202H102.655C101.785 225.201 100.951 224.855 100.336 224.24C99.7206 223.624 99.3746 222.791 99.3736 221.921V65.603C99.3746 64.7332 99.7206 63.8993 100.336 63.2842C100.951 62.6692 101.785 62.3232 102.655 62.3223H233.129C233.999 62.3233 234.833 62.6692 235.448 63.2843C236.063 63.8993 236.409 64.7332 236.41 65.603V221.921C236.409 222.791 236.063 223.624 235.448 224.239C234.833 224.855 233.999 225.201 233.129 225.202Z" fill="#E6E6E6"/>
<path d="M173.103 54.6028H91.8461C90.1064 54.6053 88.4387 55.2974 87.2086 56.5274C85.9784 57.7574 85.2863 59.4249 85.2838 61.1643V218.563L86.0558 218.327V61.1643C86.0577 59.6294 86.6684 58.1579 87.7538 57.0726C88.8393 55.9872 90.311 55.3767 91.8461 55.3748H173.343L173.103 54.6028ZM243.938 54.6028H91.8461C90.1064 54.6053 88.4387 55.2974 87.2086 56.5274C85.9784 57.7574 85.2863 59.4249 85.2838 61.1643V237.938C85.2863 239.678 85.9784 241.345 87.2086 242.575C88.4387 243.805 90.1064 244.498 91.8461 244.5H243.938C245.677 244.498 247.345 243.805 248.575 242.575C249.805 241.345 250.498 239.678 250.5 237.938V61.1643C250.498 59.4249 249.805 57.7574 248.575 56.5274C247.345 55.2974 245.677 54.6053 243.938 54.6028ZM249.728 237.938C249.726 239.473 249.115 240.945 248.03 242.03C246.944 243.116 245.473 243.726 243.938 243.728H91.8461C90.311 243.726 88.8393 243.116 87.7538 242.03C86.6684 240.945 86.0577 239.473 86.0558 237.938V61.1643C86.0577 59.6294 86.6684 58.1579 87.7538 57.0726C88.8393 55.9872 90.311 55.3767 91.8461 55.3748H243.938C245.473 55.3767 246.944 55.9872 248.03 57.0726C249.115 58.1579 249.726 59.6294 249.728 61.1643V237.938Z" fill="#3F3D56"/>
<path d="M203.406 71.5855H132.378C131.457 71.5845 130.574 71.2182 129.923 70.5669C129.271 69.9157 128.905 69.0328 128.904 68.1118V51.1291C128.905 50.2082 129.271 49.3252 129.923 48.674C130.574 48.0227 131.457 47.6564 132.378 47.6554H203.406C204.327 47.6564 205.21 48.0227 205.861 48.674C206.513 49.3252 206.879 50.2082 206.88 51.1291V68.1118C206.879 69.0328 206.513 69.9157 205.861 70.5669C205.21 71.2182 204.327 71.5845 203.406 71.5855Z" fill="#2A5679"/>
<path d="M167.892 48.8133C172.156 48.8133 175.612 45.3572 175.612 41.0939C175.612 36.8306 172.156 33.3745 167.892 33.3745C163.628 33.3745 160.172 36.8306 160.172 41.0939C160.172 45.3572 163.628 48.8133 167.892 48.8133Z" fill="#2A5679"/>
<path d="M167.892 45.7958C170.489 45.7958 172.594 43.6907 172.594 41.0939C172.594 38.4972 170.489 36.3921 167.892 36.3921C165.295 36.3921 163.189 38.4972 163.189 41.0939C163.189 43.6907 165.295 45.7958 167.892 45.7958Z" fill="white"/>
</g>
<defs>
<clipPath id="clip0_71_719">
<rect width="250" height="244" fill="white" transform="translate(0.5 0.5)"/>
</clipPath>
</defs>
</svg>
