<svg width="21" height="21" viewBox="0 0 21 21" fill="none" xmlns="http://www.w3.org/2000/svg">
<path d="M10.5 0.166656C11.8703 0.166656 13.1844 0.711 14.1534 1.67994C15.1223 2.64888 15.6667 3.96304 15.6667 5.33332C15.6667 6.70361 15.1223 8.01777 14.1534 8.98671C13.1844 9.95565 11.8703 10.5 10.5 10.5C9.12971 10.5 7.81555 9.95565 6.84661 8.98671C5.87767 8.01777 5.33333 6.70361 5.33333 5.33332C5.33333 3.96304 5.87767 2.64888 6.84661 1.67994C7.81555 0.711 9.12971 0.166656 10.5 0.166656ZM10.5 2.74999C9.81485 2.74999 9.15777 3.02216 8.67331 3.50663C8.18884 3.9911 7.91666 4.64818 7.91666 5.33332C7.91666 6.01847 8.18884 6.67555 8.67331 7.16001C9.15777 7.64448 9.81485 7.91666 10.5 7.91666C11.1851 7.91666 11.8422 7.64448 12.3267 7.16001C12.8112 6.67555 13.0833 6.01847 13.0833 5.33332C13.0833 4.64818 12.8112 3.9911 12.3267 3.50663C11.8422 3.02216 11.1851 2.74999 10.5 2.74999ZM10.5 11.7917C13.9487 11.7917 20.8333 13.5096 20.8333 16.9583V20.8333H0.166664V16.9583C0.166664 13.5096 7.05125 11.7917 10.5 11.7917ZM10.5 14.2458C6.66375 14.2458 2.62083 16.1317 2.62083 16.9583V18.3792H18.3792V16.9583C18.3792 16.1317 14.3362 14.2458 10.5 14.2458Z" fill="#2A5679"/>
</svg>
